<?xml version="1.0" encoding="utf-8"?>

<!DOCTYPE svg PUBLIC "-//W3C//DTD SVG 1.1//EN" "http://www.w3.org/Graphics/SVG/1.1/DTD/svg11.dtd">
<svg version="1.1" id="Layer_1" xmlns="http://www.w3.org/2000/svg" xmlns:xlink="http://www.w3.org/1999/xlink" x="0px" y="0px" viewBox="0 0 640 224" style="enable-background:new 0 0 640 224;" xml:space="preserve">

	<defs>
	    <linearGradient id="logo-gradient" x1="50%" y1="0%" x2="50%" y2="100%" >
	        <stop offset="0%" stop-color="#fd7e14">
	            <animate attributeName="stop-color" values="#fd7e14; #FFD131; #fd7e14" dur="3s" repeatCount="indefinite"></animate>
	        </stop>
	        <stop offset="100%" stop-color="#FFD131">
	            <animate attributeName="stop-color" values="#FFD131; #fd7e14; #FFD131" dur="3s" repeatCount="indefinite"></animate>
	        </stop>
	    </linearGradient>

	</defs>

<path fill="url('#logo-gradient')" d="M0,179.16c0-18.182,22.147-39.336,24.792-37.354c14.545,10.247,42.972,20.825,62.805,20.825
	c16.197,0,22.147-2.644,22.147-9.255c0-8.265-13.223-8.926-31.402-12.562C41.65,133.543,4.629,118.668,4.629,73.713
	C4.628,26.444,37.684,0,102.142,0c60.492,0,84.291,18.511,84.291,41.981c0,21.485-25.452,40.988-27.105,39.666
	c-15.536-11.9-38.014-20.495-56.195-20.495c-15.867,0-21.485,2.645-21.485,9.255c0,7.273,15.205,7.603,34.377,11.57
	c44.624,9.586,75.366,28.096,75.366,66.442c0,49.914-33.055,75.365-103.793,75.365C19.833,223.785,0,203.951,0,179.16L0,179.16z"/>
<path fill="url('#logo-gradient')" d="M326.255,40.989c7.274-26.113,25.123-37.683,42.972-37.683c26.115,0,51.236,20.495,47.932,28.098
	L349.396,190.07c-9.257,21.815-22.812,30.411-45.948,30.411c-23.14,0-35.37-7.604-45.287-30.411L187.752,31.403
	c-3.306-7.603,23.47-28.098,50.244-28.098c20.824,0,37.684,14.875,44.294,37.683l22.147,75.366L326.255,40.989z"/>
<path fill="url('#logo-gradient')" d="M511.036,222.132c-58.178,0-100.489-46.277-100.489-110.405C410.546,46.938,458.147,0,530.869,0
	c54.211,0,86.275,18.511,86.275,51.896c0,27.767-37.354,38.344-39.666,35.701c-10.577-11.569-24.791-18.511-40.99-18.511
	c-24.46,0-44.625,18.511-44.625,46.938c0,29.42,18.512,46.938,41.319,46.938c14.875,0,24.792-4.959,29.749-13.223h-7.27
	c-25.123,0-37.354-5.289-37.354-27.438v-3.306c0-23.138,12.229-27.104,37.354-27.104h56.521c22.147,0,25.122,9.255,24.792,31.733
	v88.919c0,2.314-12.562,7.935-27.104,7.935c-14.876,0-31.403-5.951-38.678-27.438C561.281,210.563,541.778,222.132,511.036,222.132
	L511.036,222.132z"/>
</svg>
